<svg xmlns="http://www.w3.org/2000/svg" viewBox="0 0 54 12"><path fill="currentColor" d="M0 11.778V0h2.694v11.778H0ZM9.423 0c0 2.55-.991 4.922-2.756 6.685l3.724 5.093H7.063L3.016 6.243l1.045-.785A6.77 6.77 0 0 0 6.786 0h2.637Zm1.753 11.775h2.544V.002h-2.544v11.773ZM36.04 3.412c-.971 0-1.89.303-2.505 1.137v-.917h-2.42v8.143h2.45v-4.28c0-1.238.828-1.845 1.825-1.845 1.068 0 1.682.64 1.682 1.828v4.297h2.428V6.596c0-1.895-1.502-3.184-3.46-3.184m-14.631.74A4.251 4.251 0 0 0 19 3.406a4.29 4.29 0 0 0-4.284 4.297A4.29 4.29 0 0 0 19 12c.894 0 1.723-.276 2.41-.746v.52h2.43V3.632h-2.43v.521ZM19.2 9.798c-1.217 0-2.203-.938-2.203-2.095 0-1.157.986-2.095 2.202-2.095 1.217 0 2.203.938 2.203 2.095 0 1.157-.986 2.095-2.203 2.095Zm8.4-5.106v-1.06h-2.488v8.143h2.494V7.973C27.606 6.69 28.992 6 29.954 6l.029.001v-2.37c-.987 0-1.895.425-2.382 1.06m19.452-.539a4.251 4.251 0 0 0-2.41-.746 4.29 4.29 0 0 0-4.283 4.297A4.29 4.29 0 0 0 44.644 12c.894 0 1.723-.276 2.41-.746v.52h2.43V3.632h-2.43v.521Zm-2.21 5.646c-1.217 0-2.203-.938-2.203-2.095 0-1.157.986-2.095 2.203-2.095 1.216 0 2.202.938 2.202 2.095 0 1.157-.986 2.095-2.202 2.095Zm7.222-.912c.842 0 1.525.685 1.525 1.53 0 .846-.683 1.53-1.525 1.53a1.528 1.528 0 0 1-1.526-1.53c0-.845.683-1.53 1.526-1.53Z"/></svg>