<svg xmlns="http://www.w3.org/2000/svg" width="39" height="24" fill="none"><g clip-path="url(#a)"><path stroke="#C9C9C9" stroke-width=".66" d="M3.5.33h32c1.425 0 2.67 1.16 2.67 2.67v18c0 1.518-1.152 2.67-2.67 2.67h-32C2.075 23.67.83 22.51.83 21V3C.83 1.482 1.982.33 3.5.33Z"/><path fill="#fff" d="M35.5 1c1.1 0 2 .9 2 2v18c0 1.1-.9 2-2 2h-32c-1.1 0-2-.9-2-2V3c0-1.1.9-2 2-2h32Z"/><path fill="#EB001B" d="M15.5 19a7 7 0 1 0 0-14 7 7 0 0 0 0 14Z"/><path fill="#F79E1B" d="M23.5 19a7 7 0 1 0 0-14 7 7 0 0 0 0 14Z"/><path fill="#FF5F00" d="M22.5 12c0-2.4-1.2-4.5-3-5.7-1.8 1.3-3 3.4-3 5.7 0 2.3 1.2 4.5 3 5.7 1.8-1.2 3-3.3 3-5.7Z"/></g><defs><clipPath id="a"><path fill="#fff" d="M.5 0h38v24H.5z"/></clipPath></defs></svg>